Coordinates
version=1
nRows=14
nColumns=40
inDegrees=yes

Units are S.I. units (second, meters, Newtons, ...)
Angles are in degrees.

endheader
time	pelvis_tilt	pelvis_list	pelvis_rotation	pelvis_tx	pelvis_ty	pelvis_tz	hip_flexion_r	hip_adduction_r	hip_rotation_r	knee_angle_r	knee_angle_r_beta	ankle_angle_r	subtalar_angle_r	mtp_angle_r	hip_flexion_l	hip_adduction_l	hip_rotation_l	knee_angle_l	knee_angle_l_beta	ankle_angle_l	subtalar_angle_l	mtp_angle_l	lumbar_extension	lumbar_bending	lumbar_rotation	arm_flex_r	arm_add_r	arm_rot_r	elbow_flex_r	pro_sup_r	wrist_flex_r	wrist_dev_r	arm_flex_l	arm_add_l	arm_rot_l	elbow_flex_l	pro_sup_l	wrist_flex_l	wrist_dev_l
     25.73378571	     -7.03089651	     -4.57345734	      8.65838125	      0.88064541	      0.91323499	      0.52060428	      7.40271456	      4.09899621	    -15.99449644	     19.29368464	     19.29368464	     19.32768501	    -10.03228784	     -0.03626635	     31.98186676	     -6.25103944	      1.36276959	     17.10840024	     17.10840024	      1.16621154	     -4.55651626	     -0.62183015	    -10.05979458	      2.33338969	      2.18765595	     52.89312253	    -18.05245261	     -3.75503353	    102.12678136	     44.15928724	      0.00000000	      0.00000000	     -9.25917109	     -6.75147511	     -0.81872246	     31.46251968	     45.68834860	      0.00000000	      0.00000000
     25.75257143	     -7.01400802	     -4.69254240	      8.77004440	      0.88135312	      0.91196224	      0.51800277	      6.90884534	      4.14471957	    -15.96674082	     19.27008897	     19.27008897	     19.69748739	    -10.10907090	     -0.08327845	     32.12473523	     -6.21841352	      1.43533839	     18.10148493	     18.10148493	      0.75881342	     -5.65597273	     -1.12405128	     -9.98556066	      2.17170082	      2.34135676	     53.30803253	    -17.74062773	     -3.40672658	    102.35922485	     44.15260073	      0.00000000	      0.00000000	     -8.77999586	     -6.89918389	     -0.85688270	     31.71023241	     45.70220767	      0.00000000	      0.00000000
     25.77135714	     -7.06587482	     -4.65053725	      8.87999957	      0.88221200	      0.91106598	      0.51516547	      6.39833364	      4.00535441	    -15.91939858	     19.13952831	     19.13952831	     19.99465909	    -10.17077123	     -0.10795193	     32.13620753	     -6.03050650	      1.35776559	     18.87847206	     18.87847206	      0.50504399	     -6.28102074	     -1.26076619	     -9.84743557	      1.80213852	      2.50765315	     53.40282031	    -17.41876986	     -3.16689660	    102.41419630	     44.14614177	      0.00000000	      0.00000000	     -8.06719109	     -7.13497866	     -0.90163514	     31.98590281	     45.71993078	      0.00000000	      0.00000000
     25.79014286	     -6.96108935	     -4.84813755	      8.97233956	      0.88326846	      0.91025664	      0.51208492	      5.68734594	      4.13746342	    -15.92324768	     18.90034294	     18.90034294	     20.19364787	    -10.06607326	     -0.06861695	     32.38945796	     -5.95365994	      2.09346199	     20.40158054	     20.40158054	      0.44597425	     -8.08435621	     -1.63389311	     -9.86392375	      1.76103548	      2.66851550	     53.56282760	    -17.35645520	     -2.82067324	    102.45586533	     44.14413940	      0.00000000	      0.00000000	     -7.51310453	     -7.25721865	     -1.01358906	     32.33988770	     45.74490329	      0.00000000	      0.00000000
     25.80892857	     -6.93659129	     -4.88513633	      9.02651112	      0.88445549	      0.90997206	      0.50879487	      4.97088973	      4.07131486	    -15.94323302	     18.54537877	     18.54537877	     20.25059914	     -9.87831882	      0.01059184	     32.41226218	     -5.70398984	      2.72387580	     21.45195431	     21.45195431	      0.41968361	     -9.51164979	     -1.69742314	     -9.79178096	      1.54024548	      2.86436417	     53.42667394	    -17.33738350	     -2.50754685	    102.30141066	     44.14869024	      0.00000000	      0.00000000	     -6.82619573	     -7.43699642	     -1.19668669	     32.78629551	     45.78149330	      0.00000000	      0.00000000
     25.82771429	     -6.95988905	     -4.86290999	      9.07726669	      0.88574959	      0.91007677	      0.50522969	      4.22866471	      3.91065615	    -16.09072904	     18.07904277	     18.07904277	     20.23620540	     -9.48667777	      0.05083393	     32.30340318	     -5.31986350	      3.42809402	     22.22840536	     22.22840536	      0.58937566	    -11.02075022	     -1.34353845	     -9.67616298	      1.26833080	      3.09298744	     53.19243666	    -17.43239677	     -2.19942110	    101.95131402	     44.17180230	      0.00000000	      0.00000000	     -6.07632480	     -7.59108383	     -1.67222359	     33.47615563	     45.85844756	      0.00000000	      0.00000000
     25.84650000	     -6.95679421	     -4.88817697	      9.05716005	      0.88718498	      0.91045764	      0.50163735	      3.47347811	      3.79605655	    -16.16914967	     17.62590912	     17.62590912	     20.08062655	     -9.10814134	      0.12756894	     32.19634912	     -5.08685785	      3.83021681	     23.07551177	     23.07551177	      1.05763574	    -11.79458539	     -1.24318685	     -9.56833409	      1.06931987	      3.34674077	     52.84454470	    -17.42552937	     -2.10711246	    101.47733923	     44.19297208	      0.00000000	      0.00000000	     -5.32960587	     -7.74527770	     -1.97577675	     34.00012824	     45.91052266	      0.00000000	      0.00000000
     25.86528571	     -6.98533488	     -4.88433766	      8.99874220	      0.88870160	      0.91121216	      0.49787886	      2.70529005	      3.61134422	    -16.37043080	     17.09506404	     17.09506404	     19.79074329	     -8.48361366	      0.11873867	     31.94943018	     -4.81345823	      4.21339993	     23.64593713	     23.64593713	      1.71338690	    -12.43533872	     -0.65443633	     -9.42446057	      0.86834103	      3.66681456	     52.48203019	    -17.49265173	     -2.11574729	    100.61372629	     44.23760022	      0.00000000	      0.00000000	     -4.58071078	     -7.85675031	     -2.59068255	     34.81234767	     46.00202723	      0.00000000	      0.00000000
     25.88407143	     -7.00662909	     -4.89050255	      8.89122017	      0.89030356	      0.91215299	      0.49403079	      2.01683687	      3.41214052	    -16.49262842	     16.72719557	     16.72719557	     19.43452632	     -7.96874647	      0.13645060	     31.63910835	     -4.60494963	      4.37655361	     24.12360306	     24.12360306	      2.40667708	    -12.80479718	     -0.38380471	     -9.25774301	      0.71877846	      3.93430056	     51.99025515	    -17.48290294	     -2.12897334	     99.69481145	     44.27661651	      0.00000000	      0.00000000	     -3.86938907	     -7.97509822	     -3.04302880	     35.51472107	     46.07023808	      0.00000000	      0.00000000
     25.90285714	     -7.04697644	     -4.88487603	      8.74609346	      0.89189117	      0.91332803	      0.49006839	      1.39350429	      3.14834373	    -16.71059639	     16.43425527	     16.43425527	     18.99350534	     -7.31137070	      0.03577424	     31.22041229	     -4.40787649	      4.44239685	     24.38217244	     24.38217244	      3.18608651	    -12.93941436	      0.07724324	     -9.07367606	      0.59179421	      4.21805746	     51.60229437	    -17.44444683	     -2.26463849	     98.25472786	     44.34015524	      0.00000000	      0.00000000	     -3.16686608	     -8.07481853	     -3.68114464	     36.48184923	     46.15968165	      0.00000000	      0.00000000
     25.92164286	     -7.09002109	     -4.86445245	      8.55935662	      0.89343798	      0.91451841	      0.48602318	      0.93561435	      2.79062917	    -16.97211019	     16.44934698	     16.44934698	     18.47529215	     -6.66600346	     -0.46707639	     30.80929236	     -4.23604031	      4.32619294	     24.67330902	     24.67330902	      4.20709556	    -12.82815284	      0.98199966	     -8.87836956	      0.50402096	      3.96400575	     51.47174171	    -16.65072410	     -2.29842353	     96.06778591	     44.44393367	      0.00000000	      0.00000000	     -2.90727213	     -8.14105700	     -4.93405665	     37.87366749	     46.30947948	      0.00000000	      0.00000000
     25.94042857	     -7.11783724	     -4.87333386	      8.33920275	      0.89499899	      0.91581622	      0.48191303	      0.56007433	      2.47003245	    -17.01702243	     16.60946924	     16.60946924	     17.95661073	     -6.37802094	     -0.64978453	     30.23701920	     -4.11866421	      4.15782741	     24.66968933	     24.66968933	      4.87314442	    -12.76099480	      1.09933003	     -8.69308246	      0.49987897	      4.16096672	     51.03607105	    -16.50966961	     -2.31122962	     94.37604976	     44.51314314	      0.00000000	      0.00000000	     -2.19499163	     -8.24790718	     -5.41945944	     38.71546700	     46.37229838	      0.00000000	      0.00000000
     25.95921429	     -7.13313610	     -4.84222138	      8.09636000	      0.89648938	      0.91714564	      0.47771952	      0.33483799	      2.03838959	    -17.06341866	     17.07489335	     17.07489335	     17.46036322	     -6.12384663	     -0.92511605	     29.59795637	     -3.97917287	      3.87765114	     24.57869765	     24.57869765	      5.45624844	    -12.65361406	      1.11963739	     -8.55102328	      0.49449321	      4.27100829	     50.51644613	    -16.24896692	     -2.42300771	     92.44174922	     44.58837746	      0.00000000	      0.00000000	     -1.44924944	     -8.42419925	     -5.66442564	     39.46921237	     46.40766386	      0.00000000	      0.00000000
     25.97800000	     -7.10630315	     -4.84713248	      7.82965848	      0.89797296	      0.91836878	      0.47343234	      0.19907481	      1.59402664	    -17.11404928	     17.78831849	     17.78831849	     16.91511287	     -5.94193768	     -1.61673920	     28.96742006	     -3.88308969	      3.58226689	     24.57897229	     24.57897229	      6.08065146	    -12.54703825	      1.19247805	     -8.37239043	      0.59766760	      4.00364898	     50.24846031	    -15.44139419	     -2.58831119	     89.53170593	     44.70439277	      0.00000000	      0.00000000	     -0.95085654	     -8.61654008	     -5.73890156	     40.25724808	     46.41598617	      0.00000000	      0.00000000
